<?xml version="1.0" encoding="UTF-8" standalone="no"?>
<!-- Created with Inkscape (http://www.inkscape.org/) -->

<svg
   xmlns:svg="http://www.w3.org/2000/svg"
   xmlns="http://www.w3.org/2000/svg"
   xmlns:xlink="http://www.w3.org/1999/xlink"
   version="1.1"
   width="959.99988"
   height="475.99985"
   id="svg2"
   style="display:inline">
  <title
     id="title3968">Red Car - Top View</title>
  <defs
     id="defs4">
    <linearGradient
       id="linearGradient3876">
      <stop
         id="stop3878"
         style="stop-color:#000000;stop-opacity:1"
         offset="0" />
      <stop
         id="stop3880"
         style="stop-color:#b3b3b3;stop-opacity:0"
         offset="1" />
    </linearGradient>
    <linearGradient
       id="linearGradient3866">
      <stop
         id="stop3868"
         style="stop-color:#000000;stop-opacity:1"
         offset="0" />
      <stop
         id="stop3870"
         style="stop-color:#cccccc;stop-opacity:0"
         offset="1" />
    </linearGradient>
    <linearGradient
       id="linearGradient3767">
      <stop
         id="stop3769"
         style="stop-color:#333333;stop-opacity:1"
         offset="0" />
      <stop
         id="stop3771"
         style="stop-color:#808080;stop-opacity:0"
         offset="1" />
    </linearGradient>
    <linearGradient
       id="linearGradient3759">
      <stop
         id="stop3761"
         style="stop-color:#1a1a1a;stop-opacity:1"
         offset="0" />
      <stop
         id="stop3763"
         style="stop-color:#f30000;stop-opacity:0"
         offset="1" />
    </linearGradient>
    <linearGradient
       x1="897.22186"
       y1="542.3974"
       x2="883.75842"
       y2="535.37097"
       id="linearGradient3765"
       xlink:href="#linearGradient3759"
       gradientUnits="userSpaceOnUse" />
    <linearGradient
       x1="879.89642"
       y1="537.5"
       x2="874.86749"
       y2="533.5"
       id="linearGradient3773"
       xlink:href="#linearGradient3767"
       gradientUnits="userSpaceOnUse" />
    <linearGradient
       x1="880.71014"
       y1="552.05042"
       x2="876.64569"
       y2="535.37097"
       id="linearGradient3785"
       xlink:href="#linearGradient3759"
       gradientUnits="userSpaceOnUse" />
    <linearGradient
       x1="887.89642"
       y1="528.35504"
       x2="876.13763"
       y2="528.41949"
       id="linearGradient3789"
       xlink:href="#linearGradient3767"
       gradientUnits="userSpaceOnUse" />
    <linearGradient
       x1="887.89642"
       y1="528.35504"
       x2="876.13763"
       y2="528.41949"
       id="linearGradient3811"
       xlink:href="#linearGradient3767"
       gradientUnits="userSpaceOnUse"
       gradientTransform="translate(-22,316.2677)" />
    <linearGradient
       x1="879.89642"
       y1="537.5"
       x2="874.86749"
       y2="533.5"
       id="linearGradient3813"
       xlink:href="#linearGradient3767"
       gradientUnits="userSpaceOnUse"
       gradientTransform="translate(-24,320.2677)" />
    <linearGradient
       x1="887.89642"
       y1="528.35504"
       x2="876.13763"
       y2="528.41949"
       id="linearGradient3843"
       xlink:href="#linearGradient3767"
       gradientUnits="userSpaceOnUse" />
    <linearGradient
       x1="879.89642"
       y1="537.5"
       x2="874.86749"
       y2="533.5"
       id="linearGradient3845"
       xlink:href="#linearGradient3767"
       gradientUnits="userSpaceOnUse" />
    <linearGradient
       x1="897.22186"
       y1="542.3974"
       x2="883.75842"
       y2="535.37097"
       id="linearGradient3847"
       xlink:href="#linearGradient3759"
       gradientUnits="userSpaceOnUse" />
    <linearGradient
       x1="880.71014"
       y1="552.05042"
       x2="876.64569"
       y2="535.37097"
       id="linearGradient3849"
       xlink:href="#linearGradient3759"
       gradientUnits="userSpaceOnUse" />
    <linearGradient
       x1="887.89642"
       y1="528.35504"
       x2="876.13763"
       y2="528.41949"
       id="linearGradient3851"
       xlink:href="#linearGradient3767"
       gradientUnits="userSpaceOnUse"
       gradientTransform="translate(-22,316.2677)" />
    <linearGradient
       x1="879.89642"
       y1="537.5"
       x2="874.86749"
       y2="533.5"
       id="linearGradient3853"
       xlink:href="#linearGradient3767"
       gradientUnits="userSpaceOnUse"
       gradientTransform="translate(-24,320.2677)" />
    <linearGradient
       x1="263.89166"
       y1="865.19409"
       x2="242.62505"
       y2="863.93677"
       id="linearGradient3872"
       xlink:href="#linearGradient3866"
       gradientUnits="userSpaceOnUse"
       gradientTransform="matrix(0.99043406,0.13798685,-0.13798685,0.99043406,130.62129,-29.069768)" />
    <linearGradient
       x1="252.14371"
       y1="864.27179"
       x2="232.43333"
       y2="863.93677"
       id="linearGradient3874"
       xlink:href="#linearGradient3876"
       gradientUnits="userSpaceOnUse"
       gradientTransform="matrix(0.99043406,0.13798685,-0.13798685,0.99043406,120.60901,-30.101958)" />
    <linearGradient
       x1="252.14371"
       y1="864.27179"
       x2="232.43333"
       y2="863.93677"
       id="linearGradient3886"
       xlink:href="#linearGradient3876"
       gradientUnits="userSpaceOnUse"
       gradientTransform="matrix(0.99043406,-0.13798685,-0.13798685,-0.99043406,120.60901,1463.2521)" />
    <linearGradient
       x1="263.89166"
       y1="865.19409"
       x2="242.62505"
       y2="863.93677"
       id="linearGradient3888"
       xlink:href="#linearGradient3866"
       gradientUnits="userSpaceOnUse"
       gradientTransform="matrix(0.99043406,-0.13798685,-0.13798685,-0.99043406,130.62129,1462.2199)" />
    <linearGradient
       x1="254.25746"
       y1="865.07489"
       x2="232.43333"
       y2="863.93677"
       id="linearGradient3960"
       xlink:href="#linearGradient3759"
       gradientUnits="userSpaceOnUse"
       gradientTransform="matrix(0.99043406,0.13798685,-0.13798685,0.99043406,146.04655,-33.884618)" />
    <linearGradient
       x1="263.89166"
       y1="865.19409"
       x2="242.62505"
       y2="863.93677"
       id="linearGradient3962"
       xlink:href="#linearGradient3759"
       gradientUnits="userSpaceOnUse"
       gradientTransform="matrix(0.99043406,0.13798685,-0.13798685,0.99043406,156.30883,-32.602428)" />
    <linearGradient
       x1="880.71014"
       y1="552.05042"
       x2="876.64569"
       y2="535.37097"
       id="linearGradient3991"
       xlink:href="#linearGradient3759"
       gradientUnits="userSpaceOnUse"
       gradientTransform="translate(21.43754,297.90666)" />
    <linearGradient
       x1="897.22186"
       y1="542.3974"
       x2="883.75842"
       y2="535.37097"
       id="linearGradient3994"
       xlink:href="#linearGradient3759"
       gradientUnits="userSpaceOnUse"
       gradientTransform="translate(21.43754,297.90666)" />
    <linearGradient
       x1="879.89642"
       y1="537.5"
       x2="874.86749"
       y2="533.5"
       id="linearGradient3997"
       xlink:href="#linearGradient3759"
       gradientUnits="userSpaceOnUse"
       gradientTransform="translate(21.43754,297.90666)" />
    <linearGradient
       x1="887.89642"
       y1="528.35504"
       x2="876.13763"
       y2="528.41949"
       id="linearGradient4000"
       xlink:href="#linearGradient3759"
       gradientUnits="userSpaceOnUse"
       gradientTransform="translate(21.43754,297.90666)" />
    <linearGradient
       x1="879.89642"
       y1="537.5"
       x2="874.86749"
       y2="533.5"
       id="linearGradient4008"
       xlink:href="#linearGradient3759"
       gradientUnits="userSpaceOnUse"
       gradientTransform="matrix(0.89332217,0,0,0.89332217,92.369757,365.14619)" />
    <linearGradient
       x1="887.89642"
       y1="528.35504"
       x2="876.13763"
       y2="528.41949"
       id="linearGradient4011"
       xlink:href="#linearGradient3759"
       gradientUnits="userSpaceOnUse"
       gradientTransform="matrix(0.89332217,0,0,0.89332217,94.156401,361.5729)" />
    <linearGradient
       x1="880.71014"
       y1="552.05042"
       x2="835.98706"
       y2="501.07629"
       id="linearGradient4131"
       xlink:href="#linearGradient3759"
       gradientUnits="userSpaceOnUse"
       gradientTransform="translate(21.43754,297.90666)" />
    <linearGradient
       x1="879.89642"
       y1="537.5"
       x2="815.8241"
       y2="531.909"
       id="linearGradient4133"
       xlink:href="#linearGradient3759"
       gradientUnits="userSpaceOnUse"
       gradientTransform="translate(21.43754,297.90666)" />
    <linearGradient
       x1="879.89642"
       y1="537.5"
       x2="812.13739"
       y2="533.5"
       id="linearGradient4135"
       xlink:href="#linearGradient3759"
       gradientUnits="userSpaceOnUse"
       gradientTransform="matrix(0.89332217,0,0,0.89332217,92.369757,365.14619)" />
    <linearGradient
       x1="887.89642"
       y1="528.35504"
       x2="805.29413"
       y2="529.60681"
       id="linearGradient4137"
       xlink:href="#linearGradient3759"
       gradientUnits="userSpaceOnUse"
       gradientTransform="matrix(0.89332217,0,0,0.89332217,94.156401,361.5729)" />
    <linearGradient
       x1="229.69746"
       y1="873.13715"
       x2="205.59436"
       y2="867.67596"
       id="linearGradient4139"
       xlink:href="#linearGradient3759"
       gradientUnits="userSpaceOnUse"
       gradientTransform="matrix(0.99043406,0.13798685,-0.13798685,0.99043406,146.04655,-33.884618)" />
    <linearGradient
       x1="238.83344"
       y1="873.05804"
       x2="216.55965"
       y2="872.64813"
       id="linearGradient4141"
       xlink:href="#linearGradient3759"
       gradientUnits="userSpaceOnUse"
       gradientTransform="matrix(0.99043406,0.13798685,-0.13798685,0.99043406,156.30883,-32.602428)" />
    <linearGradient
       x1="871.32599"
       y1="842.30206"
       x2="848.16486"
       y2="834.67706"
       id="linearGradient4149"
       xlink:href="#linearGradient3759"
       gradientUnits="userSpaceOnUse"
       gradientTransform="translate(8.3085117,-2.651773)" />
    <linearGradient
       x1="879.89642"
       y1="537.5"
       x2="812.13739"
       y2="533.5"
       id="linearGradient4153"
       xlink:href="#linearGradient3759"
       gradientUnits="userSpaceOnUse"
       gradientTransform="matrix(0.89332217,0,0,0.89332217,80.348949,365.14607)" />
    <linearGradient
       x1="879.89642"
       y1="537.5"
       x2="815.8241"
       y2="531.909"
       id="linearGradient4155"
       xlink:href="#linearGradient3759"
       gradientUnits="userSpaceOnUse"
       gradientTransform="translate(27.624731,296.49233)" />
    <linearGradient
       x1="871.32599"
       y1="842.30206"
       x2="848.16486"
       y2="834.67706"
       id="linearGradient4185"
       xlink:href="#linearGradient3759"
       gradientUnits="userSpaceOnUse"
       gradientTransform="matrix(1,0,0,-1,8.3085117,1452.0379)" />
    <linearGradient
       x1="887.89642"
       y1="528.35504"
       x2="876.13763"
       y2="528.41949"
       id="linearGradient4187"
       xlink:href="#linearGradient3759"
       gradientUnits="userSpaceOnUse"
       gradientTransform="matrix(1,0,0,-1,21.437547,1151.4796)" />
    <linearGradient
       x1="879.89642"
       y1="537.5"
       x2="815.8241"
       y2="531.909"
       id="linearGradient4189"
       xlink:href="#linearGradient3759"
       gradientUnits="userSpaceOnUse"
       gradientTransform="matrix(1,0,0,-1,27.624731,1152.8938)" />
    <linearGradient
       x1="897.22186"
       y1="542.3974"
       x2="883.75842"
       y2="535.37097"
       id="linearGradient4191"
       xlink:href="#linearGradient3759"
       gradientUnits="userSpaceOnUse"
       gradientTransform="matrix(1,0,0,-1,21.437547,1151.4796)" />
    <linearGradient
       x1="880.71014"
       y1="552.05042"
       x2="835.98706"
       y2="501.07629"
       id="linearGradient4193"
       xlink:href="#linearGradient3759"
       gradientUnits="userSpaceOnUse"
       gradientTransform="matrix(1,0,0,-1,21.437547,1151.4796)" />
    <linearGradient
       x1="887.89642"
       y1="528.35504"
       x2="805.29413"
       y2="529.60681"
       id="linearGradient4195"
       xlink:href="#linearGradient3759"
       gradientUnits="userSpaceOnUse"
       gradientTransform="matrix(0.89332217,0,0,-0.89332217,94.156408,1087.8133)" />
    <linearGradient
       x1="879.89642"
       y1="537.5"
       x2="812.13739"
       y2="533.5"
       id="linearGradient4197"
       xlink:href="#linearGradient3759"
       gradientUnits="userSpaceOnUse"
       gradientTransform="matrix(0.89332217,0,0,-0.89332217,80.348949,1084.24)" />
    <linearGradient
       x1="229.69746"
       y1="873.13715"
       x2="205.59436"
       y2="867.67596"
       id="linearGradient4199"
       xlink:href="#linearGradient3759"
       gradientUnits="userSpaceOnUse"
       gradientTransform="matrix(0.99043406,-0.13798685,-0.13798685,-0.99043406,146.04656,1483.2708)" />
    <linearGradient
       x1="238.83344"
       y1="873.05804"
       x2="216.55965"
       y2="872.64813"
       id="linearGradient4201"
       xlink:href="#linearGradient3759"
       gradientUnits="userSpaceOnUse"
       gradientTransform="matrix(0.99043406,-0.13798685,-0.13798685,-0.99043406,156.30884,1481.9887)" />
    <linearGradient
       x1="887.89642"
       y1="528.35504"
       x2="876.13763"
       y2="528.41949"
       id="linearGradient4203"
       xlink:href="#linearGradient3759"
       gradientUnits="userSpaceOnUse"
       gradientTransform="translate(21.437547,297.90654)" />
    <linearGradient
       x1="897.22186"
       y1="542.3974"
       x2="883.75842"
       y2="535.37097"
       id="linearGradient4205"
       xlink:href="#linearGradient3759"
       gradientUnits="userSpaceOnUse"
       gradientTransform="translate(21.437547,297.90654)" />
    <linearGradient
       x1="880.71014"
       y1="552.05042"
       x2="835.98706"
       y2="501.07629"
       id="linearGradient4207"
       xlink:href="#linearGradient3759"
       gradientUnits="userSpaceOnUse"
       gradientTransform="translate(21.437547,297.90654)" />
    <linearGradient
       x1="887.89642"
       y1="528.35504"
       x2="805.29413"
       y2="529.60681"
       id="linearGradient4209"
       xlink:href="#linearGradient3759"
       gradientUnits="userSpaceOnUse"
       gradientTransform="matrix(0.89332217,0,0,0.89332217,94.156408,361.57278)" />
    <linearGradient
       x1="229.69746"
       y1="873.13715"
       x2="205.59436"
       y2="867.67596"
       id="linearGradient4211"
       xlink:href="#linearGradient3759"
       gradientUnits="userSpaceOnUse"
       gradientTransform="matrix(0.99043406,0.13798685,-0.13798685,0.99043406,146.04656,-33.884741)" />
    <linearGradient
       x1="238.83344"
       y1="873.05804"
       x2="216.55965"
       y2="872.64813"
       id="linearGradient4213"
       xlink:href="#linearGradient3759"
       gradientUnits="userSpaceOnUse"
       gradientTransform="matrix(0.99043406,0.13798685,-0.13798685,0.99043406,156.30884,-32.602551)" />
  </defs>
  <g
     transform="translate(-52.937117,-486.6931)"
     id="layer1"
     style="display:inline">
    <g
       id="g3890">
      <path
         d="m 610.52488,493.69322 c -1.50862,0.009 -4.72109,0.30491 -6.46868,0.9375 l -3.49996,1.5 8.65615,35.9375 -124.81115,0.28125 c -2.43634,0.005 -4.88764,-0.014 -7.34367,-0.0312 -4.91201,-0.0343 -9.86492,-0.10455 -14.84359,-0.21875 -7.29262,-0.16728 -14.66884,-0.41288 -22.06226,-0.71875 -0.39591,-0.0164 -0.79137,-0.0457 -1.18749,-0.0625 -14.93239,-0.63018 -30.00722,-1.49172 -45.03076,-2.4375 -20.32623,-1.28274 -40.52004,-2.70737 -60.12436,-3.875 -14.52803,-0.8653 -28.73209,-1.57957 -42.37454,-2 -9.36918,-0.28873 -18.46383,-0.45655 -27.2497,-0.40625 -4.3158,0.0247 -8.56784,0.0933 -12.71862,0.21875 -4.15077,0.12546 -8.38013,0.3553 -12.65611,0.65625 -2.138,0.15047 -4.27775,0.31024 -6.43743,0.5 -6.46891,0.5684 -13.04498,1.32139 -19.59354,2.1875 -0.0101,10e-4 -0.0211,-10e-4 -0.0312,0 -4.37252,0.57858 -8.71848,1.22552 -13.06236,1.90625 -4.34388,0.68073 -8.6734,1.39782 -12.93736,2.15625 -4.25372,0.75662 -8.47041,1.56535 -12.59361,2.375 -0.01,0.002 -0.0212,-0.002 -0.0312,0 -2.06637,0.40586 -4.06974,0.80417 -6.09369,1.21875 -6.0614,1.24162 -11.93372,2.51605 -17.49981,3.78125 -0.0101,0.002 -0.0211,-0.002 -0.0312,0 -3.71646,0.8449 -7.28724,1.67516 -10.71863,2.5 -6.86382,1.6484 -13.11532,3.23459 -18.53105,4.65625 -8.12359,2.13248 -14.38243,3.9272 -18.09356,5 -2.47363,0.71578 -3.812456,1.125 -3.812456,1.125 l -13.687352,3.75 c -0.9024,0.24873 -1.778116,0.6929 -2.624972,1.3125 -0.287714,0.2105 -0.562337,0.43593 -0.843741,0.6875 -1.099587,0.9796 -2.151003,2.27067 -3.156216,3.84375 -0.0046,0.007 0.0046,0.0243 0,0.0312 -0.500364,0.78473 -1.022455,1.64046 -1.499983,2.5625 -0.0042,0.008 0.0042,0.0232 0,0.0312 -0.477572,0.9237 -0.951142,1.91418 -1.406235,2.96875 -0.0037,0.009 0.0037,0.0222 0,0.0312 -3.667035,8.50949 -6.620008,21.13133 -8.937404,36.21875 -0.0015,0.01 0.0015,0.0212 0,0.0312 -0.03595,0.23416 -0.0581,0.48342 -0.09375,0.71875 -0.504615,3.33147 -0.992038,6.79819 -1.437484,10.34375 -0.03048,0.24265 -0.06355,0.47519 -0.09375,0.71875 -0.501568,4.04315 -0.946721,8.20247 -1.374985,12.46875 -0.001,0.01 9.99e-4,0.0211 0,0.0312 -0.213544,2.1284 -0.429117,4.29479 -0.624994,6.46875 -9.21e-4,0.01 9.21e-4,0.0209 0,0.0312 -0.195809,2.17434 -0.383971,4.34922 -0.562494,6.5625 -8.26e-4,0.01 8.25e-4,0.0209 0,0.0312 -0.357748,4.43763 -0.678168,8.9458 -0.968739,13.5 -6.56e-4,0.0101 6.55e-4,0.0209 0,0.0312 -0.872596,13.68409 -1.459581,27.78871 -1.781231,41.5625 -2.45e-4,0.0104 2.44e-4,0.0207 0,0.0312 -0.214428,9.1894 -0.312597,18.21334 -0.312597,26.90655 0,0.96763 0.02755,1.96288 0.03125,2.9375 -0.0037,0.97462 -0.03125,1.96987 -0.03125,2.9375 0,8.69321 0.09816,17.71715 0.312497,26.90625 2.44e-4,0.0105 -2.45e-4,0.0208 0,0.0312 0.32165,13.77379 0.908635,27.87841 1.781231,41.5625 6.55e-4,0.0103 -6.56e-4,0.0211 0,0.0312 0.290571,4.5542 0.610991,9.06237 0.968739,13.5 8.25e-4,0.0103 -8.26e-4,0.0211 0,0.0312 0.178523,2.21328 0.366685,4.38816 0.562494,6.5625 9.21e-4,0.0103 -9.21e-4,0.0211 0,0.0312 0.195877,2.17396 0.41145,4.34035 0.624994,6.46875 9.99e-4,0.0102 -0.001,0.0211 0,0.0312 0.428264,4.26628 0.873417,8.4256 1.374985,12.46875 0.0302,0.24356 0.06327,0.4761 0.09375,0.71875 0.445446,3.54556 0.932869,7.01228 1.437484,10.34375 0.03565,0.23533 0.0578,0.48459 0.09375,0.71875 0.0015,0.01 -0.0015,0.0215 0,0.0312 2.317396,15.08742 5.270369,27.70926 8.937404,36.21875 0.0037,0.009 -0.0037,0.0226 0,0.0312 0.455093,1.05457 0.928663,2.04505 1.406235,2.96875 0.0042,0.008 -0.0042,0.0231 0,0.0312 0.477528,0.92204 0.999619,1.77777 1.499983,2.5625 0.0046,0.007 -0.0046,0.0242 0,0.0312 1.005213,1.57308 2.056629,2.86415 3.156216,3.84375 0.281404,0.25157 0.556027,0.477 0.843741,0.6875 0.846856,0.6196 1.722572,1.06377 2.624972,1.3125 l 13.687352,3.75 c 0,0 1.338826,0.40922 3.812456,1.125 3.71113,1.0728 9.96997,2.86752 18.09356,5 5.41573,1.42166 11.66723,3.00785 18.53105,4.65625 3.43139,0.82484 7.00217,1.6551 10.71863,2.5 0.0102,0.002 0.0211,-0.002 0.0312,0 5.56609,1.2652 11.43841,2.53963 17.49981,3.78125 2.02395,0.41458 4.02732,0.81289 6.09369,1.21875 0.0101,0.002 0.0212,-0.002 0.0312,0 4.1232,0.80965 8.33989,1.61838 12.59361,2.375 4.26396,0.75843 8.59348,1.47552 12.93736,2.15625 4.34388,0.68073 8.68984,1.32767 13.06236,1.90625 0.0102,10e-4 0.0211,-10e-4 0.0312,0 6.54856,0.86611 13.12463,1.6191 19.59354,2.1875 2.15968,0.18976 4.29943,0.34953 6.43743,0.5 4.27598,0.30095 8.50534,0.53079 12.65611,0.65625 4.15078,0.12546 8.40282,0.19403 12.71862,0.21875 8.78587,0.0503 17.88052,-0.11752 27.2497,-0.40625 13.64245,-0.42043 27.84651,-1.1347 42.37454,-2 19.60432,-1.16763 39.79813,-2.59226 60.12436,-3.875 15.02354,-0.94578 30.09837,-1.80732 45.03076,-2.4375 0.39612,-0.0168 0.79158,-0.0461 1.18749,-0.0625 7.39342,-0.30587 14.76964,-0.55147 22.06226,-0.71875 4.97867,-0.1142 9.93158,-0.18447 14.84359,-0.21875 2.45603,-0.0172 4.90733,-0.0365 7.34367,-0.0312 l 124.81115,0.28125 -8.65615,35.9375 3.49996,1.5 c 1.74759,0.63259 4.96006,0.92851 6.46868,0.9375 0.8486,0.005 1.75507,-0.0741 2.68747,-0.25 0.31069,-0.0585 0.62352,-0.14105 0.93749,-0.21875 0.30459,-0.0756 0.63258,-0.15668 0.93749,-0.25 0.62844,-0.19306 1.26352,-0.42156 1.87498,-0.6875 1.82153,-0.79351 3.53423,-1.93143 4.7812,-3.3125 0.01,-0.0107 0.0217,-0.0206 0.0312,-0.0312 0.6248,-0.6979 1.11229,-1.45125 1.46873,-2.28125 l 12.15612,-31.3125 109.93631,0.25 c 0.7469,0.3739 1.47606,0.74511 2.21873,1.09375 2.97917,1.39953 5.91095,2.59705 8.84365,3.625 1.46228,0.51259 2.91777,0.97549 4.37496,1.40625 5.1,1.50747 10.18794,2.55151 15.34358,3.25 2.9462,0.39932 5.92588,0.69388 8.93741,0.90625 1.5057,0.1061 3.03396,0.18011 4.56245,0.25 3.05704,0.13994 6.13857,0.21283 9.3124,0.25 6.34746,0.0741 12.97935,0 19.99978,0 10.41006,0 20.32222,-0.53122 29.78093,-1.5625 3.78349,-0.41251 7.49107,-0.89749 11.12488,-1.46875 7.26763,-1.14252 14.22833,-2.6189 20.90602,-4.375 1.66942,-0.43903 3.3357,-0.89874 4.9687,-1.375 4.89902,-1.42876 9.61279,-3.02542 14.18735,-4.78125 1.52485,-0.58527 3.04203,-1.16054 4.5312,-1.78125 2.97832,-1.24144 5.88199,-2.55695 8.71865,-3.9375 1.41834,-0.69027 2.83552,-1.40061 4.21871,-2.125 2.76638,-1.44876 5.46676,-2.98 8.09366,-4.5625 1.31346,-0.79125 2.5961,-1.61348 3.87496,-2.4375 6.39429,-4.1201 12.36302,-8.62549 17.90606,-13.53125 4.42862,-3.91947 8.60154,-8.07981 12.49986,-12.46875 0.005,-0.006 -0.005,-0.0254 0,-0.0312 0.97044,-1.09291 1.93696,-2.19158 2.87497,-3.3125 0.005,-0.006 -0.005,-0.0251 0,-0.0312 0.93773,-1.12093 1.87573,-2.25777 2.78122,-3.40625 0.005,-0.006 -0.005,-0.0249 0,-0.0312 2.72561,-3.45817 5.31324,-7.01887 7.74992,-10.71875 0.005,-0.007 -0.005,-0.024 0,-0.0312 0.80882,-1.22856 1.62889,-2.46441 2.40622,-3.71875 0.005,-0.008 -0.005,-0.0238 0,-0.0312 2.3405,-3.77809 4.56678,-7.65249 6.62493,-11.65625 0.004,-0.008 -0.004,-0.0231 0,-0.0312 0.68299,-1.32918 1.34774,-2.67809 1.99998,-4.03125 0.004,-0.008 -0.004,-0.0229 0,-0.0312 0.65204,-1.35328 1.316,-2.71692 1.93748,-4.09375 0.004,-0.009 -0.004,-0.0227 0,-0.0312 1.2464,-2.76248 2.43801,-5.5517 3.56246,-8.40625 0.004,-0.009 -0.004,-0.0224 0,-0.0312 0.56023,-1.42286 1.09477,-2.86742 1.62498,-4.3125 0.003,-0.009 -0.003,-0.0222 0,-0.0312 0.53002,-1.44524 1.06231,-2.90799 1.56248,-4.375 0.49999,-1.46713 0.99842,-2.94904 1.46874,-4.4375 0.003,-0.009 -0.003,-0.022 0,-0.0312 0.47013,-1.48858 0.93435,-2.99052 1.37498,-4.5 0.003,-0.01 -0.003,-0.0217 0,-0.0312 0.44045,-1.50961 0.87009,-3.03244 1.28124,-4.5625 0.003,-0.01 -0.003,-0.0217 0,-0.0312 1.23813,-4.61013 2.36836,-9.306 3.34369,-14.09375 l 0,-0.0312 c 0.3236,-1.58939 0.6112,-3.2044 0.9063,-4.8125 l 0,-0.0312 c 2.0747,-11.31836 3.4621,-23.06204 4.1562,-35.21875 5e-4,-0.0103 -6e-4,-0.0211 0,-0.0312 0.098,-1.72792 0.1787,-3.47566 0.25,-5.21875 4e-4,-0.0103 -4e-4,-0.0211 0,-0.0312 0.1426,-3.49694 0.2467,-7.00718 0.2812,-10.5625 0,-0.0103 -10e-5,-0.0211 0,-0.0312 0.017,-1.78297 0.01,-3.57803 0,-5.375 0,-0.6358 -0.022,-1.2714 -0.031,-1.90625 0.01,-0.63485 0.031,-1.27045 0.031,-1.90625 0.01,-1.79697 0.017,-3.59203 0,-5.375 -10e-5,-0.0102 0,-0.0209 0,-0.0312 -0.034,-3.55532 -0.1386,-7.06556 -0.2812,-10.5625 -4e-4,-0.0102 4e-4,-0.0209 0,-0.0312 -0.071,-1.74309 -0.152,-3.49083 -0.25,-5.21875 -6e-4,-0.0102 5e-4,-0.0209 0,-0.0312 -0.6941,-12.15671 -2.0815,-23.90039 -4.1562,-35.21875 l 0,-0.0312 c -0.2951,-1.6081 -0.5827,-3.22311 -0.9063,-4.8125 l 0,-0.0312 c -0.97537,-4.78775 -2.10556,-9.48362 -3.34369,-14.09375 -0.003,-0.01 0.003,-0.0213 0,-0.0312 -0.41115,-1.53006 -0.84079,-3.05289 -1.28124,-4.5625 -0.003,-0.01 0.003,-0.0213 0,-0.0312 -0.44063,-1.50948 -0.90485,-3.01142 -1.37498,-4.5 -0.003,-0.009 0.003,-0.0223 0,-0.0312 -0.47032,-1.48846 -0.96875,-2.97037 -1.46874,-4.4375 -0.50017,-1.46701 -1.03246,-2.92976 -1.56248,-4.375 -0.003,-0.009 0.003,-0.0223 0,-0.0312 -0.53021,-1.44508 -1.06475,-2.88964 -1.62498,-4.3125 -0.004,-0.009 0.004,-0.0223 0,-0.0312 -1.12445,-2.85455 -2.31606,-5.64377 -3.56246,-8.40625 -0.004,-0.008 0.004,-0.0223 0,-0.0312 -0.62148,-1.37683 -1.28544,-2.74047 -1.93748,-4.09375 -0.004,-0.008 0.004,-0.0233 0,-0.0312 -0.65224,-1.35316 -1.31699,-2.70207 -1.99998,-4.03125 -0.004,-0.008 0.004,-0.0233 0,-0.0312 -2.05815,-4.00376 -4.28443,-7.87816 -6.62493,-11.65625 -0.005,-0.007 0.005,-0.0233 0,-0.0312 -0.77733,-1.25434 -1.5974,-2.49019 -2.40622,-3.71875 -0.005,-0.007 0.005,-0.0242 0,-0.0312 -2.43668,-3.69988 -5.02431,-7.26058 -7.74992,-10.71875 -0.005,-0.006 0.005,-0.0253 0,-0.0312 -0.90549,-1.14848 -1.84349,-2.28532 -2.78122,-3.40625 -0.005,-0.006 0.005,-0.0253 0,-0.0312 -0.93801,-1.12092 -1.90453,-2.21959 -2.87497,-3.3125 -0.005,-0.006 0.005,-0.0253 0,-0.0312 -3.89832,-4.38894 -8.07124,-8.54928 -12.49986,-12.46875 -5.54304,-4.90576 -11.51177,-9.41115 -17.90606,-13.53125 -1.27886,-0.82402 -2.5615,-1.64625 -3.87496,-2.4375 -2.6269,-1.5825 -5.32728,-3.11374 -8.09366,-4.5625 -1.38319,-0.72439 -2.80037,-1.43473 -4.21871,-2.125 -2.83666,-1.38055 -5.74033,-2.69606 -8.71865,-3.9375 -1.48917,-0.62071 -3.00635,-1.19598 -4.5312,-1.78125 -4.57456,-1.75583 -9.28833,-3.35249 -14.18735,-4.78125 -1.633,-0.47626 -3.29928,-0.93597 -4.9687,-1.375 -6.67769,-1.7561 -13.63839,-3.23248 -20.90602,-4.375 -3.63381,-0.57126 -7.34139,-1.05624 -11.12488,-1.46875 -9.45856,-1.03258 -19.37072,-1.5638 -29.78078,-1.5638 -7.02043,0 -13.65232,-0.0741 -19.99978,0 -3.17383,0.0372 -6.25536,0.11006 -9.3124,0.25 -1.52849,0.0699 -3.05675,0.1439 -4.56245,0.25 -3.01153,0.21237 -5.99121,0.50693 -8.93741,0.90625 -5.15564,0.69849 -10.24358,1.74253 -15.34358,3.25 -1.45719,0.43076 -2.91268,0.89366 -4.37496,1.40625 -2.9327,1.02795 -5.86448,2.22547 -8.84365,3.625 -0.74267,0.34864 -1.47183,0.71985 -2.21873,1.09375 l -109.93631,0.25 -12.15612,-31.3125 c -0.35644,-0.83 -0.84393,-1.58335 -1.46873,-2.28125 -0.01,-0.0105 -0.0213,-0.0206 -0.0312,-0.0312 -1.24697,-1.38107 -2.95967,-2.51899 -4.7812,-3.3125 -0.61146,-0.26594 -1.24654,-0.49444 -1.87498,-0.6875 -0.30491,-0.0933 -0.6329,-0.1744 -0.93749,-0.25 -0.31402,-0.0777 -0.62685,-0.16025 -0.93754,-0.21875 -0.9324,-0.1759 -1.83887,-0.255 -2.68747,-0.25 z"
         id="path3855"
         style="fill:#000000;fill-opacity:0.99607843;stroke:#191919;stroke-width:14;stroke-miterlimit:4;stroke-opacity:1;stroke-dasharray:none" />
      <path
         d="m 610.52488,493.69322 c -1.50863,0.009 -4.72109,0.30611 -6.46868,0.9375 l -3.49996,1.5 8.65615,35.84375 -124.81115,0.28125 c -77.96294,0.1654 -166.52257,-11.50367 -232.93499,-9.5 -66.41241,2.00366 -152.123355,28 -152.123355,28 l -13.687353,3.78125 c -19.251207,5.29627 -25.718472,97.36705 -25.718472,166.78125 0,1.11303 0.02665,2.25313 0.03125,3.375 -0.0046,1.12187 -0.03125,2.26197 -0.03125,3.375 0,69.4142 6.467265,161.48498 25.718472,166.78125 l 13.687353,3.78125 c 0,0 85.710945,25.99634 152.123355,28 66.41242,2.00367 154.97205,-9.6654 232.93499,-9.5 l 124.81115,0.28125 -8.65615,35.84375 3.49996,1.5 c 1.74759,0.63139 4.96005,0.92854 6.46868,0.9375 0.84859,0.005 1.75508,-0.0744 2.68747,-0.25 0.3107,-0.0584 0.62352,-0.14119 0.93749,-0.21875 0.30459,-0.0754 0.63259,-0.15686 0.93749,-0.25 0.62844,-0.19269 1.2635,-0.42206 1.87498,-0.6875 1.82153,-0.79201 3.53423,-1.90276 4.7812,-3.28125 0.01,-0.0107 0.0217,-0.0208 0.0312,-0.0312 0.6248,-0.69658 1.11228,-1.45281 1.46873,-2.28125 l 12.15612,-31.25 109.93631,0.25 c 23.90036,11.94238 45.51124,10.71875 73.59296,10.71875 133.24883,0 187.62627,-86.58633 186.99807,-201.375 0,-0.7802 -0.019,-1.56564 -0.031,-2.34375 0.012,-0.77811 0.031,-1.56355 0.031,-2.34375 0.6282,-114.78867 -53.74924,-201.375 -186.99807,-201.375 -28.08172,0 -49.6926,-1.22363 -73.59296,10.71875 l -109.93631,0.25 -12.15612,-31.25 c -0.35645,-0.82844 -0.84393,-1.58467 -1.46873,-2.28125 -0.01,-0.0104 -0.0213,-0.0206 -0.0312,-0.0312 -1.24697,-1.37849 -2.95967,-2.48924 -4.7812,-3.28125 -0.61148,-0.26544 -1.24654,-0.49481 -1.87498,-0.6875 -0.3049,-0.0931 -0.6329,-0.1746 -0.93749,-0.25 -0.31397,-0.0776 -0.62679,-0.16035 -0.93749,-0.21875 -0.93239,-0.1756 -1.83888,-0.255 -2.68747,-0.25 z"
         id="path2853"
         style="fill:#ca0000;fill-opacity:0.99607843;stroke:none" />
      <path
         d="m 400.34004,855.23645 c -33.36407,0 -65.30693,1.8 -94.81148,5.0625 25.66022,48.71366 97.98502,30.26531 205.56028,31.53125 49.68636,0.58471 89.54313,1.87929 121.52994,2.375 -47.1597,-23.33417 -133.52669,-38.96875 -232.27874,-38.96875 z"
         id="path3643"
         style="opacity:0.9;fill:#262626;fill-opacity:0.99607843;stroke:none" />
      <path
         d="m 400.34004,855.23645 c -3.20645,0 -6.3831,0.0295 -9.5624,0.0625 0.81825,16.17101 6.42806,30.25652 14.59359,38.84375 4.67141,-0.0756 9.49509,-0.19655 14.43735,-0.34375 -8.56569,-8.1923 -14.59264,-22.22803 -15.71858,-38.5625 -1.25125,-0.005 -2.49466,0 -3.74996,0 z"
         id="path3658"
         style="opacity:0.5;fill:#000000;fill-opacity:0.99607843;stroke:none" />
      <path
         d="m 989.02119,827.5 -5.0937,0.59375 c -21.54475,2.51272 -37.68825,25.97858 -39.28083,54.53125 l -0.37499,7.125 5.24994,-4.84375 c 15.88918,-14.68042 28.30315,-32.50737 37.40585,-52.75 L 989.02119,827.5 z"
         id="path3707"
         style="font-size:medium;font-style:normal;font-variant:normal;font-weight:normal;font-stretch:normal;text-indent:0;text-align:start;text-decoration:none;line-height:normal;letter-spacing:normal;word-spacing:normal;text-transform:none;direction:ltr;block-progression:tb;writing-mode:lr-tb;text-anchor:start;color:#000000;fill:#212121;fill-opacity:1;fill-rule:nonzero;stroke:#191919;stroke-width:5;stroke-miterlimit:4;stroke-opacity:1;stroke-dasharray:none;marker:none;visibility:visible;display:inline;overflow:visible;enable-background:accumulate;font-family:Bitstream Vera Sans;-inkscape-font-specification:Bitstream Vera Sans" />
      <path
         d="m 783.47453,838.49812 c 0,0 79.67723,-22.59643 105.37631,-31.98181 26.83936,-9.80183 98.85885,-39.14563 98.85885,-39.14563 0,0 -8.74094,42.46969 -30.48286,57.91806 C 880.00358,880.15847 724.541,879.14237 724.541,879.14237"
         id="path3715"
         style="opacity:0.5;fill:none;stroke:#292929;stroke-width:6;stroke-linecap:round;stroke-linejoin:round;stroke-miterlimit:4;stroke-opacity:1;stroke-dasharray:none" />
      <path
         d="m 869.96946,817.83791 -4.43745,2.34375 c 0.98912,1.15678 1.79551,2.42864 2.37497,3.84375 4.79791,11.71705 -10.73585,29.23596 -26.87471,35.78125 -0.51675,0.20958 -1.81289,0.84066 -3.40621,1.65625 l 13.62485,-3.875 c 17.30577,-8.45764 27.47047,-23.08195 22.99975,-34 -0.91615,-2.23734 -2.3752,-4.16608 -4.2812,-5.75 z"
         id="path3757"
         style="fill:url(#linearGradient4149);fill-opacity:1;stroke:none" />
      <path
         d="m 878.55363,813.37682 -4.43746,2.34375 c 0.98913,1.15678 1.79551,2.42864 2.37498,3.84375 4.79791,11.71705 -10.73586,29.23596 -26.87471,35.78125 -0.51676,0.20958 -1.81289,0.84066 -3.40622,1.65625 l 13.62486,-3.875 c 17.30577,-8.45764 27.47047,-23.08195 22.99975,-34 -0.91615,-2.23734 -2.37521,-4.16608 -4.2812,-5.75 z"
         id="path3787"
         style="fill:url(#linearGradient4203);fill-opacity:1;stroke:none" />
      <path
         d="m 884.74074,811.96261 -4.43745,2.34375 c 0.98913,1.15678 1.79551,2.42864 2.37497,3.84375 4.79791,11.71705 -10.73585,29.23596 -26.87471,35.78125 -0.51675,0.20958 -1.81289,0.84066 -3.40621,1.65625 l 13.62485,-3.875 c 17.30577,-8.45764 27.47047,-23.08195 22.99975,-34 -0.91615,-2.23734 -2.3752,-4.16608 -4.2812,-5.75 z"
         id="path3752"
         style="fill:url(#linearGradient4155);fill-opacity:1;stroke:none" />
      <path
         d="m 901.64713,807.68932 -6.18744,1.84375 c 0.96015,1.71281 1.65449,3.53229 2.03123,5.46875 3.11938,16.03389 -20.96196,34.28356 -43.03078,38.5 -3.39497,0.64864 -28.88402,8.57601 -32.15792,8.80445 l 0,4.125 41.43906,-12.1482 c 26.2854,-5.49629 44.94881,-22.44802 41.87455,-38.25 -0.59564,-3.06164 -1.95605,-5.85954 -3.9687,-8.34375 z"
         id="path3735"
         style="fill:url(#linearGradient4205);fill-opacity:1;stroke:none" />
      <path
         d="m 901.64713,807.68932 -6.18744,1.84375 c 0.96015,1.71281 1.65449,3.53229 2.03123,5.46875 3.11938,16.03389 -20.96196,34.28356 -43.03078,38.5 -3.39497,0.64864 -28.88402,8.57601 -32.15792,8.80445 l 0,4.125 41.43906,-12.1482 c 26.2854,-5.49629 44.94881,-22.44802 41.87455,-38.25 -0.59564,-3.06164 -1.95605,-5.85954 -3.9687,-8.34375 z"
         id="path3783"
         style="fill:url(#linearGradient4207);fill-opacity:1;stroke:none" />
      <path
         d="m 857.12287,822.45735 -3.96408,2.09372 c 0.88361,1.03338 1.60397,2.16956 2.12162,3.43371 4.28608,10.4671 -9.59058,26.11713 -24.00777,31.96418 -0.46163,0.18723 -1.6195,0.75098 -3.04285,1.47957 l 12.17138,-3.46162 c 15.45963,-7.5554 24.53998,-20.61962 20.54619,-30.37296 -0.81842,-1.99866 -2.12182,-3.72165 -3.82449,-5.1366 z"
         id="path3799"
         style="fill:url(#linearGradient4209);fill-opacity:1;stroke:none" />
      <path
         d="m 843.31555,826.03064 -3.96407,2.09372 c 0.88361,1.03338 1.60396,2.16956 2.12162,3.43371 4.28607,10.4671 -9.59058,26.11713 -24.00779,31.96418 -0.46162,0.18723 -1.61949,0.75098 -3.04283,1.47957 l 12.17138,-3.46163 c 15.45963,-7.55539 24.53998,-20.61961 20.54618,-30.37295 -0.81842,-1.99866 -2.12182,-3.72165 -3.82449,-5.1366 z"
         id="path3803"
         style="fill:url(#linearGradient4153);fill-opacity:1;stroke:none" />
      <path
         d="m 233.26572,845.72352 c 8.29302,-2.02335 15.48553,-1.4788 19.79746,5.78717 l -2.49335,17.89675 c -6.87512,6.17325 -13.75024,4.95089 -20.62536,0.15543 l 3.32125,-23.83935 z"
         id="rect3861"
         style="fill:url(#linearGradient4211);fill-opacity:1;stroke:none" />
      <path
         d="m 253.54192,848.98679 c 8.15021,-1.21022 15.16667,-0.5728 18.84282,5.50812 l -2.37311,17.03377 c -6.4839,2.97479 -12.98291,5.20965 -19.63082,0.14793 l 3.16111,-22.68982 z"
         id="path3864"
         style="fill:url(#linearGradient4213);fill-opacity:1;stroke:none" />
      <path
         d="m 400.34004,852.75 c -33.45399,0 -65.4921,1.78938 -95.09273,5.0625 l -3.65621,0.40625 1.71873,3.25 c 6.67107,12.66443 16.56158,21.1134 29.06219,26.4375 12.5006,5.3241 27.5721,7.6126 45.09326,8.4375 35.04231,1.6498 79.95415,-2.63121 133.59231,-2 49.65868,0.58438 89.50788,1.87874 121.52994,2.375 l 1.12499,-4.75 C 585.86326,868.2934 499.35596,852.75 400.34004,852.75 z m 0,5 c 91.16946,0 171.7473,13.47861 220.09137,33.71875 -29.95203,-0.58241 -65.21189,-1.60604 -109.31132,-2.125 -53.9371,-0.63473 -98.97585,3.65217 -133.40481,2.03125 -17.21447,-0.81046 -31.76683,-3.10539 -43.40578,-8.0625 -10.4532,-4.45209 -18.4853,-11.15435 -24.49974,-20.90625 28.30745,-2.98306 58.73468,-4.65625 90.53028,-4.65625 z"
         id="path4025"
         style="font-size:medium;font-style:normal;font-variant:normal;font-weight:normal;font-stretch:normal;text-indent:0;text-align:start;text-decoration:none;line-height:normal;letter-spacing:normal;word-spacing:normal;text-transform:none;direction:ltr;block-progression:tb;writing-mode:lr-tb;text-anchor:start;opacity:0.9;color:#000000;fill:#191919;fill-opacity:1;fill-rule:nonzero;stroke:none;stroke-width:5;marker:none;visibility:visible;display:inline;overflow:visible;enable-background:accumulate;font-family:Bitstream Vera Sans;-inkscape-font-specification:Bitstream Vera Sans" />
      <path
         d="m 260.49741,607.38072 -77.74917,12.46875 c -27.1504,4.35415 -48.94714,48.77276 -50.99945,104.84375 2.05231,56.07099 23.84905,100.4896 50.99945,104.84375 l 77.74917,12.46875 c 13.29585,0 23.99974,-10.704 23.99974,-24 l 0,-186.625 c 0,-13.296 -10.70389,-24 -23.99974,-24 z"
         id="rect2864"
         style="opacity:0.9;fill:#262626;fill-opacity:0.99607843;stroke:#191919;stroke-width:5;stroke-miterlimit:4;stroke-opacity:1;stroke-dasharray:none" />
      <path
         d="m 691.9615,573.16197 c -2.96919,0 -5.89327,0.33215 -8.78116,0.96875 -0.0104,-0.01 -0.0208,-0.021 -0.0312,-0.0312 l -63.84311,12.3125 c -17.7278,6.60469 -31.99965,14.272 -31.99965,32 l 0,212.5625 c 0,17.728 14.27185,25.39531 31.99965,32 l 63.84306,12.3125 c 0.0105,-0.0102 0.0208,-0.0211 0.0312,-0.0312 2.88789,0.6366 5.81197,0.96875 8.78116,0.96875 45.39547,0 82.19753,-57.36263 82.31161,-151.53125 -0.11408,-94.16862 -36.91614,-151.53125 -82.31161,-151.53125 z"
         id="path3703"
         style="opacity:0.9;fill:#262626;fill-opacity:0.99607843;stroke:#191919;stroke-width:5;stroke-miterlimit:4;stroke-opacity:1;stroke-dasharray:none;stroke-dashoffset:0" />
      <path
         d="m 400.34004,594.14987 c -33.36407,0 -65.30693,-1.8 -94.81148,-5.0625 25.66022,-48.71366 97.98502,-30.26531 205.56028,-31.53125 49.68636,-0.58471 89.54313,-1.87929 121.52994,-2.375 -47.1597,23.33417 -133.52669,38.96875 -232.27874,38.96875 z"
         id="path4157"
         style="opacity:0.9;fill:#262626;fill-opacity:0.99607843;stroke:none" />
      <path
         d="m 400.34004,594.14987 c -3.20645,0 -6.3831,-0.0295 -9.5624,-0.0625 0.81825,-16.17101 6.42806,-30.25652 14.59359,-38.84375 4.67141,0.0756 9.49509,0.19655 14.43735,0.34375 -8.56569,8.1923 -14.59264,22.22803 -15.71858,38.5625 -1.25125,0.005 -2.49466,0 -3.74996,0 z"
         id="path4159"
         style="opacity:0.5;fill:#000000;fill-opacity:0.99607843;stroke:none" />
      <path
         d="m 989.02119,621.88632 -5.0937,-0.59375 c -21.54475,-2.51272 -37.68825,-25.97858 -39.28083,-54.53125 l -0.37499,-7.125 5.24994,4.84375 c 15.88918,14.68042 28.30315,32.50737 37.40585,52.75 l 2.09373,4.65625 z"
         id="path4161"
         style="font-size:medium;font-style:normal;font-variant:normal;font-weight:normal;font-stretch:normal;text-indent:0;text-align:start;text-decoration:none;line-height:normal;letter-spacing:normal;word-spacing:normal;text-transform:none;direction:ltr;block-progression:tb;writing-mode:lr-tb;text-anchor:start;color:#000000;fill:#212121;fill-opacity:1;fill-rule:nonzero;stroke:#191919;stroke-width:5;stroke-miterlimit:4;stroke-opacity:1;stroke-dasharray:none;marker:none;visibility:visible;display:inline;overflow:visible;enable-background:accumulate;font-family:Bitstream Vera Sans;-inkscape-font-specification:Bitstream Vera Sans" />
      <path
         d="m 783.47453,610.8882 c 0,0 79.67723,22.59643 105.37631,31.98181 26.83936,9.80183 98.85885,39.14563 98.85885,39.14563 0,0 -8.74094,-42.46969 -30.48286,-57.91806 C 880.00358,569.22785 724.541,570.24395 724.541,570.24395"
         id="path4163"
         style="opacity:0.5;fill:none;stroke:#292929;stroke-width:6;stroke-linecap:round;stroke-linejoin:round;stroke-miterlimit:4;stroke-opacity:1;stroke-dasharray:none" />
      <path
         d="m 869.96946,631.54841 -4.43745,-2.34375 c 0.98912,-1.15678 1.79551,-2.42864 2.37497,-3.84375 4.79791,-11.71705 -10.73585,-29.23596 -26.87471,-35.78125 -0.51675,-0.20958 -1.81289,-0.84066 -3.40621,-1.65625 l 13.62485,3.875 c 17.30577,8.45764 27.47047,23.08195 22.99975,34 -0.91615,2.23734 -2.3752,4.16608 -4.2812,5.75 z"
         id="path4165"
         style="fill:url(#linearGradient4185);fill-opacity:1;stroke:none" />
      <path
         d="m 878.55363,636.0095 -4.43746,-2.34375 c 0.98913,-1.15678 1.79551,-2.42864 2.37498,-3.84375 4.79791,-11.71705 -10.73586,-29.23596 -26.87471,-35.78125 -0.51676,-0.20958 -1.81289,-0.84066 -3.40622,-1.65625 l 13.62486,3.875 c 17.30577,8.45764 27.47047,23.08195 22.99975,34 -0.91615,2.23734 -2.37521,4.16608 -4.2812,5.75 z"
         id="path4167"
         style="fill:url(#linearGradient4187);fill-opacity:1;stroke:none" />
      <path
         d="m 884.74074,637.42371 -4.43745,-2.34375 c 0.98913,-1.15678 1.79551,-2.42864 2.37497,-3.84375 4.79791,-11.71705 -10.73585,-29.23596 -26.87471,-35.78125 -0.51675,-0.20958 -1.81289,-0.84066 -3.40621,-1.65625 l 13.62485,3.875 c 17.30577,8.45764 27.47047,23.08195 22.99975,34 -0.91615,2.23734 -2.3752,4.16608 -4.2812,5.75 z"
         id="path4169"
         style="fill:url(#linearGradient4189);fill-opacity:1;stroke:none" />
      <path
         d="m 901.64713,641.697 -6.18744,-1.84375 c 0.96015,-1.71281 1.65449,-3.53229 2.03123,-5.46875 3.11938,-16.03389 -20.96196,-34.28356 -43.03078,-38.5 -3.39497,-0.64864 -28.88402,-8.57601 -32.15792,-8.80445 l 0,-4.125 41.43906,12.1482 c 26.2854,5.49629 44.94881,22.44802 41.87455,38.25 -0.59564,3.06164 -1.95605,5.85954 -3.9687,8.34375 z"
         id="path4171"
         style="fill:url(#linearGradient4191);fill-opacity:1;stroke:none" />
      <path
         d="m 901.64713,641.697 -6.18744,-1.84375 c 0.96015,-1.71281 1.65449,-3.53229 2.03123,-5.46875 3.11938,-16.03389 -20.96196,-34.28356 -43.03078,-38.5 -3.39497,-0.64864 -28.88402,-8.57601 -32.15792,-8.80445 l 0,-4.125 41.43906,12.1482 c 26.2854,5.49629 44.94881,22.44802 41.87455,38.25 -0.59564,3.06164 -1.95605,5.85954 -3.9687,8.34375 z"
         id="path4173"
         style="fill:url(#linearGradient4193);fill-opacity:1;stroke:none" />
      <path
         d="m 857.12287,626.92897 -3.96408,-2.09372 c 0.88361,-1.03338 1.60397,-2.16956 2.12162,-3.43371 4.28608,-10.4671 -9.59058,-26.11713 -24.00777,-31.96418 -0.46163,-0.18723 -1.6195,-0.75098 -3.04285,-1.47957 l 12.17138,3.46162 c 15.45963,7.5554 24.53998,20.61962 20.54619,30.37296 -0.81842,1.99866 -2.12182,3.72165 -3.82449,5.1366 z"
         id="path4175"
         style="fill:url(#linearGradient4195);fill-opacity:1;stroke:none" />
      <path
         d="m 843.31555,623.35568 -3.96407,-2.09372 c 0.88361,-1.03338 1.60396,-2.16956 2.12162,-3.43371 4.28607,-10.4671 -9.59058,-26.11713 -24.00779,-31.96418 -0.46162,-0.18723 -1.61949,-0.75098 -3.04283,-1.47957 l 12.17138,3.46163 c 15.45963,7.55539 24.53998,20.61961 20.54618,30.37295 -0.81842,1.99866 -2.12182,3.72165 -3.82449,5.1366 z"
         id="path4177"
         style="fill:url(#linearGradient4197);fill-opacity:1;stroke:none" />
      <path
         d="m 233.26572,603.6628 c 8.29302,2.02335 15.48553,1.4788 19.79746,-5.78717 l -2.49335,-17.89675 c -6.87512,-6.17325 -13.75024,-4.95089 -20.62536,-0.15543 l 3.32125,23.83935 z"
         id="path4179"
         style="fill:url(#linearGradient4199);fill-opacity:1;stroke:none" />
      <path
         d="m 253.54192,600.39953 c 8.15021,1.21022 15.16667,0.5728 18.84282,-5.50812 l -2.37311,-17.03377 c -6.4839,-2.97479 -12.98291,-5.20965 -19.63082,-0.14793 l 3.16111,22.68982 z"
         id="path4181"
         style="fill:url(#linearGradient4201);fill-opacity:1;stroke:none" />
      <path
         d="m 400.34004,596.63632 c -33.45399,0 -65.4921,-1.78938 -95.09273,-5.0625 l -3.65621,-0.40625 1.71873,-3.25 c 6.67107,-12.66443 16.56158,-21.1134 29.06219,-26.4375 12.5006,-5.3241 27.5721,-7.6126 45.09326,-8.4375 35.04231,-1.6498 79.95415,2.63121 133.59231,2 49.65868,-0.58438 89.50788,-1.87874 121.52994,-2.375 l 1.12499,4.75 c -47.84926,23.67535 -134.35656,39.21875 -233.37248,39.21875 z m 0,-5 c 91.16946,0 171.7473,-13.47861 220.09137,-33.71875 -29.95203,0.58241 -65.21189,1.60604 -109.31132,2.125 -53.9371,0.63473 -98.97585,-3.65217 -133.40481,-2.03125 -17.21447,0.81046 -31.76683,3.10539 -43.40578,8.0625 -10.4532,4.45209 -18.4853,11.15435 -24.49974,20.90625 28.30745,2.98306 58.73468,4.65625 90.53028,4.65625 z"
         id="path4183"
         style="font-size:medium;font-style:normal;font-variant:normal;font-weight:normal;font-stretch:normal;text-indent:0;text-align:start;text-decoration:none;line-height:normal;letter-spacing:normal;word-spacing:normal;text-transform:none;direction:ltr;block-progression:tb;writing-mode:lr-tb;text-anchor:start;opacity:0.9;color:#000000;fill:#191919;fill-opacity:1;fill-rule:nonzero;stroke:none;stroke-width:5;marker:none;visibility:visible;display:inline;overflow:visible;enable-background:accumulate;font-family:Bitstream Vera Sans;-inkscape-font-specification:Bitstream Vera Sans" />
    </g>
  </g>
</svg>
