<?xml version="1.0" encoding="UTF-8" standalone="no"?>
<!-- Created with Inkscape (http://www.inkscape.org/) -->

<svg
   xmlns:dc="http://purl.org/dc/elements/1.1/"
   xmlns:cc="http://creativecommons.org/ns#"
   xmlns:rdf="http://www.w3.org/1999/02/22-rdf-syntax-ns#"
   xmlns:svg="http://www.w3.org/2000/svg"
   xmlns="http://www.w3.org/2000/svg"
   xmlns:sodipodi="http://sodipodi.sourceforge.net/DTD/sodipodi-0.dtd"
   xmlns:inkscape="http://www.inkscape.org/namespaces/inkscape"
   width="480"
   height="320"
   id="svg2"
   version="1.1"
   inkscape:version="0.47 r22583"
   sodipodi:docname="buy_source_code.svg">
  <defs
     id="defs4">
    <inkscape:perspective
       sodipodi:type="inkscape:persp3d"
       inkscape:vp_x="0 : 526.18109 : 1"
       inkscape:vp_y="0 : 1000 : 0"
       inkscape:vp_z="744.09448 : 526.18109 : 1"
       inkscape:persp3d-origin="372.04724 : 350.78739 : 1"
       id="perspective10" />
  </defs>
  <sodipodi:namedview
     id="base"
     pagecolor="#ffffff"
     bordercolor="#666666"
     borderopacity="1.0"
     inkscape:pageopacity="0.0"
     inkscape:pageshadow="2"
     inkscape:zoom="4"
     inkscape:cx="425.20742"
     inkscape:cy="34.083354"
     inkscape:document-units="px"
     inkscape:current-layer="layer1"
     showgrid="false"
     inkscape:window-width="1090"
     inkscape:window-height="700"
     inkscape:window-x="87"
     inkscape:window-y="0"
     inkscape:window-maximized="0" />
  <metadata
     id="metadata7">
    <rdf:RDF>
      <cc:Work
         rdf:about="">
        <dc:format>image/svg+xml</dc:format>
        <dc:type
           rdf:resource="http://purl.org/dc/dcmitype/StillImage" />
        <dc:title></dc:title>
      </cc:Work>
    </rdf:RDF>
  </metadata>
  <g
     inkscape:label="Layer 1"
     inkscape:groupmode="layer"
     id="layer1"
     transform="translate(0,-732.36218)">
    <path
       sodipodi:type="star"
       style="fill:#ffffff;fill-opacity:1;fill-rule:nonzero;stroke:#000000;stroke-width:6.66002423000000032;stroke-linecap:round;stroke-linejoin:round;stroke-miterlimit:4;stroke-opacity:1;stroke-dasharray:none;stroke-dashoffset:0"
       id="path2816"
       sodipodi:sides="10"
       sodipodi:cx="277.14285"
       sodipodi:cy="395.21933"
       sodipodi:r1="228.9825"
       sodipodi:r2="286.22812"
       sodipodi:arg1="0.45471927"
       sodipodi:arg2="0.76887854"
       inkscape:flatsided="false"
       inkscape:rounded="0.2"
       inkscape:randomized="0"
       d="M 482.85715,495.79076 C 474.20897,513.48022 496.54365,580.091 482.8524,594.24224 C 469.16115,608.39348 401.84893,588.27136 384.45481,597.49916 C 367.06069,606.72695 345.97698,673.74421 326.58264,677.14528 C 307.1883,680.54636 264.55905,624.7021 245.06295,621.94353 C 225.56685,619.18497 169.11802,661.01037 151.42856,652.3622 C 133.73911,643.71402 132.07576,573.47822 117.92452,559.78697 C 103.77329,546.09572 33.520869,546.75339 24.293072,529.35927 C 15.065274,511.96515 55.003164,454.1655 51.602087,434.77116 C 48.201009,415.37682 -9.0209608,374.61555 -6.2623973,355.11945 C -3.5038338,335.62335 62.78038,312.33735 71.428557,294.6479 C 80.076734,276.95844 57.74206,210.34766 71.433307,196.19642 C 85.124554,182.04518 152.43677,202.1673 169.8309,192.9395 C 187.22502,183.71171 208.30873,116.69445 227.70307,113.29338 C 247.0974,109.8923 289.72665,165.73656 309.22276,168.49513 C 328.71886,171.25369 385.16769,129.42829 402.85714,138.07646 C 420.5466,146.72464 422.20995,216.96044 436.36118,230.65169 C 450.51242,244.34294 520.76484,243.68526 529.99263,261.07939 C 539.22043,278.47351 499.28254,336.27316 502.68362,355.6675 C 506.0847,375.06184 563.30667,415.8231 560.5481,435.31921 C 557.78954,454.81531 491.50533,478.10131 482.85715,495.79076 z"
       transform="matrix(0.1738427,0,0,0.12968565,378.46359,959.17934)"
       inkscape:export-filename="/Users/riq/progs/src/LevelSVG/Resources/sprites/single_images/buy-source-code-selected.png"
       inkscape:export-xdpi="90"
       inkscape:export-ydpi="90" />
    <flowRoot
       xml:space="preserve"
       id="flowRoot3602"
       style="font-size:22px;fill:none;stroke:#000000;stroke-width:1px;stroke-linecap:butt;stroke-linejoin:miter;stroke-opacity:1"><flowRegion
         id="flowRegion3604"><rect
           id="rect3606"
           width="53.033009"
           height="29.294424"
           x="376.7869"
           y="311.92038" /></flowRegion><flowPara
         id="flowPara3608"></flowPara></flowRoot>  </g>
</svg>
